<svg width="16" height="16" viewBox="0 0 16 16" fill="none" xmlns="http://www.w3.org/2000/svg">
<path d="M-0.171626 6.16432C-0.116664 5.9946 0.0295582 5.87091 0.205598 5.84529L5.15101 5.12451L7.36273 0.629933C7.44143 0.469933 7.60392 0.368652 7.7818 0.368652C7.95971 0.368652 8.12216 0.469933 8.2009 0.629933L10.4127 5.12451L15.358 5.84529C15.534 5.87091 15.6803 5.9946 15.7353 6.16429C15.7903 6.334 15.7444 6.52028 15.617 6.64481L12.0386 10.1434L12.8832 15.0834C12.9133 15.2593 12.8412 15.437 12.6973 15.5419C12.6159 15.6012 12.5195 15.6314 12.4226 15.6314C12.3482 15.6314 12.2735 15.6136 12.2052 15.5776L7.78183 13.2451L3.35868 15.5775C3.20117 15.6606 3.0104 15.6467 2.86648 15.5419C2.72256 15.437 2.65043 15.2593 2.6805 15.0834L3.5254 10.1434L-0.0533829 6.64478C-0.180755 6.52028 -0.22665 6.334 -0.171626 6.16432Z" fill="#FFB800"/>
</svg>
